<?xml version="1.0" encoding="utf-8"?>
<!-- Generator: Adobe Illustrator 22.0.1, SVG Export Plug-In . SVG Version: 6.00 Build 0)  -->
<svg version="1.1" id="레이어_1" xmlns="http://www.w3.org/2000/svg" xmlns:xlink="http://www.w3.org/1999/xlink" x="0px"
	 y="0px" viewBox="0 0 680.3 42.5" style="enable-background:new 0 0 680.3 42.5;" xml:space="preserve">
<style type="text/css">
	.st0{fill:none;stroke:#FFFFFF;stroke-width:0.5;stroke-miterlimit:10;}
	.st1{fill:#FFFFFF;}
</style>
<g>
	<path class="st0" d="M18.7,18.1c0,0,4.8-3.4,11.2-3.3c0,0,7.5,0.8,15.9-4.1c0,0-6.8,7.4-15,9.9C30.8,20.6,19.3,24.2,18.7,18.1z"/>
	<path class="st0" d="M19.1,18.1c0,0,13.6,5.1,26.1-7.2"/>
	<path class="st0" d="M12.6,11.1c0,0,2.3-0.3,4.4,3.6c0,0,3.1,9.9,0.5,27.2"/>
	<line class="st0" x1="17.8" y1="12.7" x2="17" y2="14.7"/>
	<path class="st0" d="M19,11c0,0.9-0.5,1.6-1.2,1.6c-0.6,0-1.2-0.7-1.2-1.6c0-0.9,0.5-1.6,1.2-1.6C18.4,9.5,19,10.1,19,11z"/>
	<path class="st0" d="M12.3,10.8c0.3,0.5,0,1.2-0.7,1.7c-0.7,0.5-1.5,0.5-1.8,0.1c-0.3-0.5,0-1.2,0.7-1.7
		C11.1,10.4,12,10.3,12.3,10.8z"/>
	<path class="st0" d="M14,11.2c-0.4,0.2-1.2-0.3-1.7-1.2c-0.5-0.9-0.6-1.8-0.2-2.1c0.4-0.2,1.2,0.3,1.7,1.2
		C14.3,10.1,14.4,11,14,11.2z"/>
	<path class="st0" d="M13.2,12.5c0.2,0.4,0,0.9-0.6,1.3c-0.5,0.3-1.2,0.3-1.4-0.1c-0.2-0.4,0-0.9,0.6-1.3
		C12.3,12.1,13,12.2,13.2,12.5z"/>
	<path class="st0" d="M14.7,13.6c0.3,0.3,0.3,0.9-0.1,1.4c-0.4,0.5-1,0.7-1.3,0.4C13,15.1,13,14.5,13.4,14
		C13.8,13.5,14.3,13.3,14.7,13.6z"/>
	<path class="st0" d="M13.2,12.5c0,0,0.8-0.4,1.6-0.7"/>
	<line class="st0" x1="14.7" y1="13.6" x2="15.5" y2="12.7"/>
	<g>
		<path class="st1" d="M18.3,22c-1.1-1.5-2.4-2.9-3.7-4.3c-0.7-0.7-1.4-1.3-2-2c-0.7-0.7-1.4-1.2-2.2-1.8l0,0l0,0
			c-2-2.1-4-4.2-5.9-6.5C3.6,6.3,2.7,5.1,1.8,4C1,2.7,0.2,1.6-0.2,0l0.5-0.1c0.8,2.7,1.6,5.3,2.5,8c0.9,2.6,1.8,5.2,2.9,7.8
			c0.3,0.6,0.6,1.3,0.9,1.9c0.3,0.6,0.6,1.2,1,1.8c0.8,1.1,1.8,2.1,3,2.7c1.2,0.7,2.5,1,3.9,1l1-0.1c0.3-0.1,0.7-0.2,1-0.2
			c0.3-0.1,0.7-0.2,1-0.3L18.3,22z M18.3,22c-1.2,0.6-2.6,1.2-4,1.3c-1.4,0.1-2.9-0.1-4.1-0.8c-1.3-0.7-2.3-1.7-3.1-2.9
			C6.7,19,6.3,18.4,6,17.8c-0.3-0.6-0.6-1.3-0.9-1.9c-1.1-2.6-2-5.2-2.9-7.8c-0.9-2.6-1.7-5.3-2.5-8L0.2,0c0.3,1.3,1.2,2.5,2,3.7
			C3.1,4.8,4,6,4.9,7.1c1.9,2.2,3.8,4.4,5.8,6.4l0,0c0.8,0.6,1.5,1.2,2.2,1.9c0.7,0.6,1.3,1.4,2,2.1C16.1,18.9,17.3,20.4,18.3,22z"
			/>
	</g>
	<path class="st0" d="M17.7,21.5c0,0-8.4-0.4-17.1-19.7"/>
	<line class="st0" x1="18" y1="18.2" x2="18.7" y2="18.1"/>
</g>
<g>
	<g>
		<path class="st1" d="M91.3,0.7c2.8,0,5.3,0.5,7.7,1.6c2.4,1.1,4.5,2.6,6.4,4.5l-4.8,4.9c-2.6-2.7-5.7-4.1-9.3-4.1
			c-3.6,0-6.8,1.4-9.4,4.1c-2.6,2.7-3.8,6-3.8,9.8s1.3,7.1,3.8,9.9c2.6,2.7,5.8,4,9.4,4c2,0,3.8-0.4,5.5-1.2c1.7-0.8,3.2-2,4.4-3.5
			v-5.7h-10v-6.9h16.6v14.9c-0.9,1.4-2,2.7-3.2,3.9c-1.2,1.2-2.5,2.2-3.9,3c-1.4,0.8-2.9,1.5-4.5,1.9c-1.6,0.4-3.3,0.7-5,0.7
			c-5.5,0-10.2-2-14-6.1c-3.9-4.1-5.8-9-5.8-14.8c0-5.7,1.9-10.7,5.8-14.8C81.2,2.8,85.8,0.7,91.3,0.7z"/>
		<path class="st1" d="M143,42.5l-7.7-13.9h-11.2v13.9h-6.6V0.7h19.9c3.6,0,6.7,1.4,9.3,4.1c2.6,2.7,3.9,6,3.9,9.8
			c0,2.9-0.8,5.5-2.3,7.9c-1.5,2.3-3.5,4-5.8,5l8.2,15H143z M137.4,7.7h-13.3v13.9l13.3,0.1c1.8,0,3.3-0.7,4.6-2
			c1.3-1.4,1.9-3,1.9-4.9c0-1.9-0.7-3.5-1.9-4.9C140.7,8.4,139.2,7.7,137.4,7.7z"/>
		<path class="st1" d="M186.6,0.7v7h-19.9v10.5h19.9v6.9h-19.9v10.4h19.9v7h-26.4V0.7H186.6z"/>
		<path class="st1" d="M222.6,0.7v7h-19.9v10.5h19.9v6.9h-19.9v10.4h19.9v7h-26.4V0.7H222.6z"/>
		<path class="st1" d="M232.2,0.6l26.4,25.1V0.6h6.6v41.8v-0.1v0.1l-26.5-25.1v25h-6.6V0.6z"/>
		<path class="st1" d="M316.9,0.7v7H297v13.9h19.9v7H297v13.9h-6.6V0.7H316.9z"/>
		<path class="st1" d="M346.3,0.7c5.5,0,10.2,2,14,6.1c3.9,4.1,5.9,9,5.9,14.8c0,5.8-2,10.7-5.9,14.8c-3.9,4.1-8.5,6.1-14,6.1
			c-5.5,0-10.2-2-14-6.1c-3.9-4.1-5.8-9-5.8-14.8c0-5.7,1.9-10.7,5.8-14.8C336.1,2.8,340.8,0.7,346.3,0.7z M346.3,7.7
			c-3.6,0-6.8,1.4-9.4,4.1c-2.6,2.7-3.8,6-3.8,9.8s1.3,7.1,3.8,9.9c2.6,2.7,5.8,4,9.4,4c3.6,0,6.7-1.3,9.3-4
			c2.6-2.8,3.9-6.1,3.9-9.9s-1.3-7.1-3.9-9.8C353.1,9.1,350,7.7,346.3,7.7z"/>
		<path class="st1" d="M401.3,42.5l-7.7-13.9h-11.2v13.9h-6.6V0.7h19.9c3.6,0,6.7,1.4,9.3,4.1c2.6,2.7,3.9,6,3.9,9.8
			c0,2.9-0.8,5.5-2.3,7.9c-1.5,2.3-3.5,4-5.8,5l8.2,15H401.3z M395.7,7.7h-13.3v13.9l13.3,0.1c1.8,0,3.3-0.7,4.6-2
			c1.3-1.4,1.9-3,1.9-4.9c0-1.9-0.7-3.5-1.9-4.9C399,8.4,397.5,7.7,395.7,7.7z"/>
		<path class="st1" d="M444.9,0.7v7h-19.9v10.5h19.9v6.9h-19.9v10.4h19.9v7h-26.4V0.7H444.9z"/>
		<path class="st1" d="M466.1,25.1c-3.2,0-5.9-1.2-8.2-3.6c-2.3-2.4-3.4-5.3-3.4-8.7c0-3.3,1.1-6.2,3.4-8.6c2.2-2.4,4.9-3.6,8.2-3.6
			h21.5v7h-21.5c-0.7,0-1.3,0.1-1.9,0.4c-0.6,0.3-1.1,0.6-1.6,1.1c-0.5,0.5-0.8,1-1.1,1.7c-0.2,0.6-0.4,1.3-0.4,2
			c0,1.4,0.5,2.7,1.4,3.7c1,1,2.1,1.6,3.5,1.6h9.9c3.2,0,5.9,1.2,8.2,3.6c2.3,2.4,3.4,5.2,3.4,8.6c0,3.3-1.1,6.2-3.4,8.6
			c-2.2,2.4-5,3.6-8.2,3.6h-21.5v-7H476c0.7,0,1.3-0.1,1.9-0.4c0.6-0.3,1.1-0.6,1.6-1.1c0.5-0.5,0.8-1,1.1-1.7
			c0.2-0.6,0.4-1.3,0.4-2c0-1.4-0.5-2.6-1.5-3.7c-1-1-2.1-1.6-3.5-1.6H466.1z"/>
		<path class="st1" d="M497.2,0.7h33.1v7h-13.2v34.8h-6.6V7.7h-13.3V0.7z"/>
	</g>
	<g>
		<path class="st1" d="M584.6,23.6c-1.4,0.2-2.9,0.3-4.6,0.5c-1.7,0.1-3.6,0.2-5.7,0.3c-2.2,0.1-4.6,0.2-7.3,0.2
			c-2.7,0-5.8,0.1-9.3,0.1v-2.8c1.7,0,3.4,0,4.8,0s2.9,0,4.2,0v-9.3h3.2v9.3c1.6,0,3.1-0.1,4.4-0.1c1.3,0,2.6-0.1,3.7-0.2
			c1.1-0.1,2.2-0.2,3.3-0.3c1-0.1,2-0.2,3-0.3L584.6,23.6z M580.8,2.5v4.1c0,2.1-0.1,4.1-0.3,6c-0.2,1.9-0.5,3.5-0.8,4.7l-3.2-0.4
			c0.3-1.6,0.6-3.2,0.8-4.8c0.2-1.6,0.3-3.2,0.3-4.9V5.4h-17.2V2.5H580.8z M568.1,38.9h23.8v2.8h-27V29.3h3.3V38.9z M590.7,13.5h6.3
			v2.9h-6.3v15h-3.2V0.3h3.2V13.5z"/>
		<path class="st1" d="M605.6,28.9h6.3c2.3,0,4.7-0.1,7.1-0.2c2.4-0.1,4.7-0.4,6.8-0.7l0.4,2.8c-2.4,0.4-4.9,0.7-7.5,0.8
			c-2.6,0.1-5.1,0.2-7.6,0.2h-8.7v-16h15.2V6.6h-15.2V3.7h18.4v14.9h-15.2V28.9z M633.7,42.2h-3.3V0.3h3.3V42.2z"/>
		<path class="st1" d="M664.5,7.1H655v6.6c0,0.9,0,1.6,0.1,2.3c0.1,0.6,0.2,1.3,0.4,1.8s0.4,1.2,0.8,1.7c0.4,0.6,0.8,1.2,1.4,1.9
			c0.9,1,2,2.2,3.3,3.5c1.3,1.3,2.8,2.7,4.6,4.3l-2.1,2.2c-1.6-1.5-3-2.8-4.1-3.9c-1.1-1.2-2.2-2.2-3.1-3.2c-0.7-0.7-1.3-1.4-1.8-2
			c-0.5-0.6-0.9-1.1-1-1.4h0c-0.1,0.2-0.2,0.5-0.4,0.8c-0.2,0.3-0.5,0.7-0.8,1.1c-0.3,0.4-0.7,0.8-1,1.2c-0.4,0.4-0.7,0.8-1.1,1.2
			c-0.3,0.3-0.7,0.8-1.2,1.3c-0.5,0.5-1.1,1.1-1.7,1.7c-0.6,0.6-1.3,1.3-2,2c-0.7,0.7-1.4,1.3-2.1,1.9l-2.2-2.2
			c1.5-1.3,2.8-2.6,4.1-3.8c1.3-1.3,2.4-2.5,3.5-3.7c0.7-0.8,1.3-1.6,1.7-2.2c0.4-0.7,0.8-1.3,1-1.9c0.2-0.6,0.4-1.3,0.5-2
			c0.1-0.7,0.1-1.5,0.1-2.3V7.1h-9.6V4.2h22.4V7.1z M673.4,16.3h7v2.9h-7v23h-3.3V0.3h3.3V16.3z"/>
	</g>
</g>
<g>
</g>
<g>
</g>
<g>
</g>
<g>
</g>
<g>
</g>
<g>
</g>
</svg>
