<?xml version="1.0" encoding="utf-8"?>
<!-- Generator: Adobe Illustrator 22.0.1, SVG Export Plug-In . SVG Version: 6.00 Build 0)  -->
<svg version="1.1" id="레이어_1" xmlns="http://www.w3.org/2000/svg" xmlns:xlink="http://www.w3.org/1999/xlink" x="0px"
	 y="0px" viewBox="0 0 119 76.5" style="enable-background:new 0 0 119 76.5;" xml:space="preserve">
<style type="text/css">
	.st0{fill:none;stroke:#00573E;stroke-miterlimit:10;}
	.st1{fill:#00573E;}
</style>
<g>
	<polyline class="st0" points="38.8,45.6 35.7,32.6 83.3,32.6 80.2,45.5 	"/>
	<polyline class="st0" points="76,63.3 73,75.4 46,75.4 43.1,63.3 	"/>
	<g>
		<g>
			<path class="st1" d="M59.1,24.8c-1.3-1.6-2.7-3.1-4.1-4.5c-0.7-0.7-1.5-1.4-2.2-2.1c-0.7-0.7-1.5-1.3-2.3-2l0,0l0,0
				c-2.2-2.3-4.3-4.6-6.3-7c-1-1.2-2-2.4-2.9-3.7c-0.5-0.7-0.9-1.3-1.3-2c-0.4-0.7-0.8-1.4-1-2.3l1-0.2c0.8,2.9,1.7,5.7,2.7,8.6
				c0.9,2.8,2,5.7,3.1,8.4c0.3,0.7,0.6,1.4,0.9,2c0.3,0.7,0.7,1.3,1.1,1.9c0.8,1.2,1.9,2.2,3.1,2.9c1.2,0.7,2.6,1.1,4.1,1.1l1.1-0.1
				c0.4-0.1,0.7-0.2,1.1-0.2c0.4-0.1,0.7-0.2,1.1-0.3C58.4,25.1,58.7,25,59.1,24.8z M59.1,24.8l-1,0.5c-0.3,0.2-0.7,0.4-1.1,0.5
				c-0.4,0.1-0.7,0.3-1.1,0.4l-1.1,0.2c-1.5,0.2-3.2,0-4.6-0.8c-1.4-0.8-2.5-1.9-3.4-3.2c-0.5-0.6-0.8-1.4-1.2-2
				c-0.3-0.7-0.7-1.4-1-2.1c-1.2-2.8-2.2-5.6-3.2-8.5c-1-2.9-1.8-5.7-2.7-8.6l1-0.2c0.4,1.3,1.3,2.7,2.1,3.9
				c0.9,1.3,1.9,2.5,2.9,3.7c2,2.4,4.1,4.7,6.3,6.9l-0.1,0c0.8,0.6,1.6,1.3,2.4,2c0.8,0.7,1.4,1.5,2.1,2.3
				C56.8,21.4,58,23.1,59.1,24.8z"/>
		</g>
	</g>
	<path class="st0" d="M52.9,13.1c0,0,2.5-0.3,4.7,3.9c0,0,3.4,7.7,0.5,26.3"/>
	<line class="st0" x1="58.5" y1="14.8" x2="57.6" y2="17"/>
	<path class="st0" d="M59.8,13c0,0.9-0.6,1.7-1.3,1.7c-0.7,0-1.3-0.8-1.3-1.7c0-0.9,0.6-1.7,1.3-1.7C59.2,11.3,59.8,12.1,59.8,13z"
		/>
	<path class="st0" d="M52.5,12.8c0.4,0.5,0,1.3-0.7,1.9c-0.7,0.5-1.6,0.6-2,0.1c-0.4-0.5,0-1.3,0.7-1.9
		C51.3,12.3,52.2,12.3,52.5,12.8z"/>
	<path class="st0" d="M54.4,13.2c-0.4,0.3-1.2-0.3-1.8-1.3c-0.6-1-0.6-2-0.2-2.2c0.4-0.2,1.2,0.3,1.8,1.3C54.7,12,54.8,13,54.4,13.2
		z"/>
	<path class="st0" d="M53.5,14.7c0.2,0.4,0,1-0.6,1.4c-0.6,0.3-1.2,0.3-1.5-0.1c-0.2-0.4,0-1,0.6-1.4C52.6,14.2,53.3,14.2,53.5,14.7
		z"/>
	<path class="st0" d="M55.2,15.7c0.4,0.3,0.3,1-0.1,1.5c-0.4,0.5-1,0.7-1.4,0.4c-0.4-0.3-0.3-1,0.1-1.5
		C54.1,15.7,54.8,15.5,55.2,15.7z"/>
	<path class="st0" d="M53.5,14.7c0,0,0.9-0.5,1.7-0.8"/>
	<line class="st0" x1="55.2" y1="15.7" x2="56.1" y2="14.8"/>
	<line class="st0" x1="58.7" y1="20.8" x2="59.5" y2="20.7"/>
	<path class="st0" d="M59.5,20.7c0,0,5.1-3.7,12.1-3.6c0,0,8.1,0.8,17.2-4.4c0,0-7.4,7.9-16.2,10.7C72.6,23.3,60.1,27.3,59.5,20.7z"
		/>
	<path class="st0" d="M59.9,20.7c0,0,14.7,5.5,28.2-7.7"/>
	<path class="st0" d="M58.4,24.3c0,0-9.1-0.4-18.5-21.3"/>
	<g>
		<path class="st1" d="M5.1,49.1c0.7,0,1.4,0.1,2,0.4c0.6,0.3,1.2,0.7,1.6,1.2L7.6,52c-0.7-0.7-1.5-1.1-2.4-1.1
			c-0.9,0-1.8,0.4-2.4,1.1c-0.7,0.7-1,1.6-1,2.5s0.3,1.8,1,2.6c0.7,0.7,1.5,1,2.4,1c0.5,0,1-0.1,1.4-0.3c0.4-0.2,0.8-0.5,1.1-0.9
			v-1.5H5.1v-1.8h4.3v3.9c-0.2,0.4-0.5,0.7-0.8,1c-0.3,0.3-0.7,0.6-1,0.8c-0.4,0.2-0.8,0.4-1.2,0.5C6,59.9,5.6,60,5.1,60
			c-1.4,0-2.6-0.5-3.6-1.6c-1-1.1-1.5-2.3-1.5-3.8c0-1.5,0.5-2.8,1.5-3.8C2.5,49.7,3.7,49.1,5.1,49.1z"/>
		<path class="st1" d="M18.5,60l-2-3.6h-2.9V60h-1.7V49.1h5.1c0.9,0,1.7,0.4,2.4,1.1c0.7,0.7,1,1.6,1,2.5c0,0.7-0.2,1.4-0.6,2
			c-0.4,0.6-0.9,1-1.5,1.3l2.1,3.9H18.5z M17.1,50.9h-3.4v3.6l3.4,0c0.5,0,0.9-0.2,1.2-0.5c0.3-0.4,0.5-0.8,0.5-1.3
			c0-0.5-0.2-0.9-0.5-1.3C18,51.1,17.6,50.9,17.1,50.9z"/>
		<path class="st1" d="M29.9,49.1v1.8h-5.1v2.7h5.1v1.8h-5.1v2.7h5.1V60H23V49.1H29.9z"/>
		<path class="st1" d="M39.2,49.1v1.8H34v2.7h5.1v1.8H34v2.7h5.1V60h-6.9V49.1H39.2z"/>
		<path class="st1" d="M41.7,49.1l6.9,6.5v-6.5h1.7V60v0v0l-6.9-6.5V60h-1.7V49.1z"/>
		<path class="st1" d="M63.6,49.1v1.8h-5.1v3.6h5.1v1.8h-5.1V60h-1.7V49.1H63.6z"/>
		<path class="st1" d="M71.3,49.1c1.4,0,2.6,0.5,3.6,1.6c1,1.1,1.5,2.3,1.5,3.8c0,1.5-0.5,2.8-1.5,3.8c-1,1.1-2.2,1.6-3.6,1.6
			c-1.4,0-2.6-0.5-3.6-1.6c-1-1.1-1.5-2.3-1.5-3.8c0-1.5,0.5-2.8,1.5-3.8C68.6,49.7,69.8,49.1,71.3,49.1z M71.3,50.9
			c-0.9,0-1.8,0.4-2.4,1.1c-0.7,0.7-1,1.6-1,2.5s0.3,1.8,1,2.6c0.7,0.7,1.5,1,2.4,1c0.9,0,1.7-0.3,2.4-1c0.7-0.7,1-1.6,1-2.6
			s-0.3-1.8-1-2.5C73,51.3,72.2,50.9,71.3,50.9z"/>
		<path class="st1" d="M85.5,60l-2-3.6h-2.9V60h-1.7V49.1h5.1c0.9,0,1.7,0.4,2.4,1.1c0.7,0.7,1,1.6,1,2.5c0,0.7-0.2,1.4-0.6,2
			c-0.4,0.6-0.9,1-1.5,1.3l2.1,3.9H85.5z M84.1,50.9h-3.4v3.6l3.4,0c0.5,0,0.9-0.2,1.2-0.5c0.3-0.4,0.5-0.8,0.5-1.3
			c0-0.5-0.2-0.9-0.5-1.3C84.9,51.1,84.5,50.9,84.1,50.9z"/>
		<path class="st1" d="M96.8,49.1v1.8h-5.1v2.7h5.1v1.8h-5.1v2.7h5.1V60H90V49.1H96.8z"/>
		<path class="st1" d="M102.3,55.5c-0.8,0-1.5-0.3-2.1-0.9c-0.6-0.6-0.9-1.4-0.9-2.2c0-0.9,0.3-1.6,0.9-2.2c0.6-0.6,1.3-0.9,2.1-0.9
			h5.6v1.8h-5.6c-0.2,0-0.3,0-0.5,0.1c-0.2,0.1-0.3,0.2-0.4,0.3c-0.1,0.1-0.2,0.3-0.3,0.4c-0.1,0.2-0.1,0.3-0.1,0.5
			c0,0.4,0.1,0.7,0.4,1c0.2,0.3,0.6,0.4,0.9,0.4h2.6c0.8,0,1.5,0.3,2.1,0.9c0.6,0.6,0.9,1.4,0.9,2.2c0,0.9-0.3,1.6-0.9,2.2
			c-0.6,0.6-1.3,0.9-2.1,0.9h-5.6v-1.8h5.6c0.2,0,0.3,0,0.5-0.1c0.2-0.1,0.3-0.2,0.4-0.3c0.1-0.1,0.2-0.3,0.3-0.4
			c0.1-0.2,0.1-0.3,0.1-0.5c0-0.4-0.1-0.7-0.4-1c-0.2-0.3-0.5-0.4-0.9-0.4H102.3z"/>
		<path class="st1" d="M110.4,49.1h8.6v1.8h-3.4v9h-1.7v-9h-3.4V49.1z"/>
	</g>
</g>
<g>
</g>
<g>
</g>
<g>
</g>
<g>
</g>
<g>
</g>
<g>
</g>
</svg>
